<?xml version="1.0" encoding="UTF-8"?>
<svg id="Capa_2" data-name="Capa 2" xmlns="http://www.w3.org/2000/svg" xmlns:xlink="http://www.w3.org/1999/xlink" viewBox="0 0 234.65 64.86">
  <defs>
    <style>
      .cls-1 {
        fill: url(#Nueva_muestra_de_degradado_1-3);
      }

      .cls-2 {
        fill: url(#Nueva_muestra_de_degradado_1-18);
      }

      .cls-3 {
        fill: url(#Nueva_muestra_de_degradado_1-17);
      }

      .cls-4 {
        fill: url(#Nueva_muestra_de_degradado_1-5);
      }

      .cls-5 {
        fill: url(#Nueva_muestra_de_degradado_1-19);
      }

      .cls-6 {
        fill: url(#Nueva_muestra_de_degradado_1-11);
      }

      .cls-7 {
        fill: url(#Nueva_muestra_de_degradado_1-15);
      }

      .cls-8 {
        fill: url(#Nueva_muestra_de_degradado_1-13);
      }

      .cls-9 {
        fill: url(#Nueva_muestra_de_degradado_1-6);
      }

      .cls-10 {
        fill: url(#Nueva_muestra_de_degradado_1-4);
      }

      .cls-11 {
        fill: url(#Nueva_muestra_de_degradado_1-9);
      }

      .cls-12 {
        fill: url(#Nueva_muestra_de_degradado_1-7);
      }

      .cls-13 {
        fill: url(#Nueva_muestra_de_degradado_1-14);
      }

      .cls-14 {
        fill: url(#Nueva_muestra_de_degradado_1-12);
      }

      .cls-15 {
        fill: url(#Nueva_muestra_de_degradado_1-2);
      }

      .cls-16 {
        fill: url(#Nueva_muestra_de_degradado_1-16);
      }

      .cls-17 {
        fill: url(#Nueva_muestra_de_degradado_1-8);
      }

      .cls-18 {
        fill: url(#Nueva_muestra_de_degradado_1);
      }

      .cls-19 {
        fill: url(#Nueva_muestra_de_degradado_1-10);
      }
    </style>
    <linearGradient id="Nueva_muestra_de_degradado_1" data-name="Nueva muestra de degradado 1" x1="42.95" y1="31.74" x2="50.45" y2="31.74" gradientUnits="userSpaceOnUse">
      <stop offset="0" stop-color="#a42080"/>
      <stop offset="1" stop-color="#981c82"/>
    </linearGradient>
    <linearGradient id="Nueva_muestra_de_degradado_1-2" data-name="Nueva muestra de degradado 1" x1="0" y1="32.43" x2="69.63" y2="32.43" xlink:href="#Nueva_muestra_de_degradado_1"/>
    <linearGradient id="Nueva_muestra_de_degradado_1-3" data-name="Nueva muestra de degradado 1" x1="78.23" y1="17.12" x2="96.61" y2="17.12" xlink:href="#Nueva_muestra_de_degradado_1"/>
    <linearGradient id="Nueva_muestra_de_degradado_1-4" data-name="Nueva muestra de degradado 1" x1="98.02" y1="17.12" x2="120.4" y2="17.12" xlink:href="#Nueva_muestra_de_degradado_1"/>
    <linearGradient id="Nueva_muestra_de_degradado_1-5" data-name="Nueva muestra de degradado 1" x1="123.16" y1="16.91" x2="144.39" y2="16.91" xlink:href="#Nueva_muestra_de_degradado_1"/>
    <linearGradient id="Nueva_muestra_de_degradado_1-6" data-name="Nueva muestra de degradado 1" x1="146.86" y1="14.03" x2="162.58" y2="14.03" xlink:href="#Nueva_muestra_de_degradado_1"/>
    <linearGradient id="Nueva_muestra_de_degradado_1-7" data-name="Nueva muestra de degradado 1" x1="163.5" y1="17.11" x2="186.53" y2="17.11" xlink:href="#Nueva_muestra_de_degradado_1"/>
    <linearGradient id="Nueva_muestra_de_degradado_1-8" data-name="Nueva muestra de degradado 1" x1="78.02" y1="44.62" x2="100.45" y2="44.62" xlink:href="#Nueva_muestra_de_degradado_1"/>
    <linearGradient id="Nueva_muestra_de_degradado_1-9" data-name="Nueva muestra de degradado 1" x1="103.13" y1="44.4" x2="124.3" y2="44.4" xlink:href="#Nueva_muestra_de_degradado_1"/>
    <linearGradient id="Nueva_muestra_de_degradado_1-10" data-name="Nueva muestra de degradado 1" x1="127.71" y1="44.81" x2="150.32" y2="44.81" xlink:href="#Nueva_muestra_de_degradado_1"/>
    <linearGradient id="Nueva_muestra_de_degradado_1-11" data-name="Nueva muestra de degradado 1" x1="153.49" y1="44.4" x2="174.64" y2="44.4" xlink:href="#Nueva_muestra_de_degradado_1"/>
    <linearGradient id="Nueva_muestra_de_degradado_1-12" data-name="Nueva muestra de degradado 1" x1="177.14" y1="44.61" x2="198.54" y2="44.61" xlink:href="#Nueva_muestra_de_degradado_1"/>
    <linearGradient id="Nueva_muestra_de_degradado_1-13" data-name="Nueva muestra de degradado 1" x1="201.37" y1="29.13" x2="208.97" y2="29.13" xlink:href="#Nueva_muestra_de_degradado_1"/>
    <linearGradient id="Nueva_muestra_de_degradado_1-14" data-name="Nueva muestra de degradado 1" x1="201.37" y1="44.6" x2="208.97" y2="44.6" xlink:href="#Nueva_muestra_de_degradado_1"/>
    <linearGradient id="Nueva_muestra_de_degradado_1-15" data-name="Nueva muestra de degradado 1" x1="211.61" y1="44.6" x2="234.65" y2="44.6" xlink:href="#Nueva_muestra_de_degradado_1"/>
    <linearGradient id="Nueva_muestra_de_degradado_1-16" data-name="Nueva muestra de degradado 1" x1="34.35" y1="63.48" x2="36.33" y2="63.48" xlink:href="#Nueva_muestra_de_degradado_1"/>
    <linearGradient id="Nueva_muestra_de_degradado_1-17" data-name="Nueva muestra de degradado 1" x1="37.3" y1="61.29" x2="44.12" y2="61.29" xlink:href="#Nueva_muestra_de_degradado_1"/>
    <linearGradient id="Nueva_muestra_de_degradado_1-18" data-name="Nueva muestra de degradado 1" x1="44.54" y1="61.29" x2="51.94" y2="61.29" xlink:href="#Nueva_muestra_de_degradado_1"/>
    <linearGradient id="Nueva_muestra_de_degradado_1-19" data-name="Nueva muestra de degradado 1" x1="52.79" y1="61.22" x2="63.62" y2="61.22" xlink:href="#Nueva_muestra_de_degradado_1"/>
  </defs>
  <g id="Capa_1-2" data-name="Capa 1">
    <g id="Capa_2-2" data-name="Capa 2">
      <g id="Capa_1-2" data-name="Capa 1-2">
        <path class="cls-18" d="m48.61,29.28c-.58-.12-1.16-.19-1.75-.2-1-.04-1.99.25-2.81.83-.69.46-1.11,1.24-1.11,2.07-.01.68.3,1.33.84,1.75.62.46,1.39.7,2.16.67.59,0,1.17-.09,1.73-.27.55-.16,1.07-.4,1.55-.71.33-.23.63-.52.88-.84.21-.27.33-.61.34-.95v-.19c-.02-1.06-.78-1.97-1.83-2.16Z"/>
        <path class="cls-15" d="m62.65,0H6.98C3.13,0,0,3.13,0,6.98v56.38c0,1.03,1.42,1.79,2.7,1.38l25.17-8.62.98-.33c.35-.11.72-.19,1.09-.24.25-.02.5-.02.74,0h31.97c3.85,0,6.98-3.11,6.98-6.96,0,0,0,0,0-.01V6.98C69.63,3.13,66.51,0,62.65,0ZM29.67,36.07c-.48,1.03-1.19,1.94-2.07,2.67-1,.79-2.16,1.37-3.39,1.71-1.44.41-2.93.6-4.43.59-2.23,0-4.45-.38-6.56-1.11-1.37-.45-2.67-1.09-3.85-1.91-.94-.67-1.21-1.95-.62-2.94l1.03-1.8c.59-1.09,1.95-1.5,3.04-.91.02.01.04.02.06.04.84.49,1.72.93,2.63,1.3,1.28.54,2.65.84,4.04.88,1.29,0,1.94-.41,1.94-1.22-.02-.49-.31-.94-.74-1.17-.93-.49-1.92-.86-2.94-1.11-1.54-.42-3.05-.93-4.53-1.53-1.05-.41-2.04-.95-2.95-1.62-.69-.5-1.25-1.17-1.62-1.94-.33-.8-.48-1.66-.44-2.52-.01-1.24.25-2.47.78-3.59.52-1.09,1.26-2.07,2.16-2.87.96-.83,2.07-1.45,3.27-1.85,1.33-.45,2.73-.68,4.14-.67,1.82-.01,3.62.24,5.37.73,1.22.36,2.38.92,3.42,1.64,1.01.7,1.27,2.08.59,3.1l-1.03,1.65c-.6,1.17-2.03,1.63-3.2,1.04,0,0,0,0,0,0-.67-.39-1.36-.74-2.07-1.03-.96-.46-2.01-.72-3.07-.78-.47-.02-.94.09-1.36.32-.36.19-.57.58-.54.98.02.53.36,1,.86,1.2.97.47,1.99.82,3.05,1.03,1.59.4,3.15.92,4.66,1.53,1.08.44,2.1,1.02,3.02,1.75.71.57,1.27,1.3,1.62,2.14.34.87.51,1.8.49,2.73,0,1.22-.25,2.43-.77,3.54Zm31.74,2.57c0,1.13-.83,2.1-1.95,2.24h-.17c-.59.08-1.18.13-1.77.13-1.31.08-2.61-.23-3.73-.89-.88-.63-1.48-1.57-1.68-2.64l-.2-.92c-1.05,1.38-2.39,2.52-3.93,3.32-1.47.76-3.1,1.15-4.75,1.15-1.21,0-2.41-.21-3.54-.63-1.05-.4-2.01-.99-2.84-1.74-.79-.73-1.43-1.61-1.86-2.6-.95-2.18-.88-4.66.18-6.79.56-1.07,1.34-2.01,2.29-2.76,1.01-.8,2.17-1.41,3.4-1.8,1.44-.43,2.94-.64,4.44-.63,1.77-.06,3.54.27,5.17.97v-.78c.08-1-.3-1.98-1.03-2.66-.99-.67-2.18-.99-3.37-.88-1.37-.01-2.74.23-4.02.7-.62.24-1.22.51-1.81.83-1.12.58-2.5.14-3.08-.99,0-.02-.02-.03-.02-.05l-.79-1.59c-.51-1.1-.06-2.42,1.03-2.96,2.99-1.48,6.29-2.23,9.62-2.18,4.08,0,7.24.91,9.4,2.71,2.16,1.8,3.3,4.53,3.3,8.15v4.95c-.08.63.02,1.27.3,1.84.11.14.25.26.41.34.62.39.99,1.09.96,1.82l.04,4.3Z"/>
        <path class="cls-1" d="m82.46,27.13c1.74.6,3.56.9,5.4.9,1.24.01,2.47-.15,3.66-.49,1-.28,1.93-.76,2.75-1.4.74-.58,1.34-1.34,1.74-2.19.41-.92.62-1.92.6-2.93.01-.77-.13-1.54-.41-2.25-.29-.69-.76-1.29-1.34-1.76-.76-.6-1.6-1.08-2.49-1.44-1.25-.51-2.53-.93-3.84-1.26-.87-.19-1.71-.48-2.5-.87-.38-.18-.63-.56-.64-.98-.02-.34.15-.66.44-.82.34-.19.73-.28,1.12-.27.85.01,1.7.2,2.48.54.88.38,1.73.83,2.53,1.34.4.26.94.15,1.2-.26,0,0,0,0,0-.01l2-3.14c.24-.37.16-.87-.19-1.15-1.07-.87-2.3-1.53-3.62-1.94-1.44-.38-2.93-.57-4.42-.55-1.17,0-2.34.17-3.45.54-1,.33-1.92.85-2.72,1.53-.75.65-1.36,1.46-1.78,2.36-.43.92-.65,1.94-.64,2.96-.01.71.12,1.42.4,2.07.3.64.76,1.18,1.33,1.59.75.56,1.57,1.02,2.44,1.37,1.22.49,2.47.91,3.73,1.25.84.21,1.65.52,2.42.92.36.19.6.55.62.96,0,.66-.54,1.03-1.6,1.03-1.15-.03-2.28-.28-3.33-.72-1.05-.42-2.05-.94-3.01-1.54-.4-.26-.94-.14-1.2.27,0,.01-.01.02-.02.03l-1.8,3.1c-.18.35-.1.77.19,1.03,1.17.96,2.51,1.69,3.94,2.17Z"/>
        <path class="cls-10" d="m109.33,27.09c1.27-.67,2.37-1.6,3.24-2.74l.16.77c.17.87.66,1.65,1.38,2.17.94.55,2.02.81,3.1.74.49,0,.98-.04,1.46-.1l1.03-.16c.41-.08.7-.44.7-.86v-5c-.01-.37-.25-.7-.6-.82-.2-.08-.38-.2-.52-.37-.26-.45-.37-.98-.32-1.5v-4.08c0-2.99-.9-5.22-2.72-6.71-1.82-1.49-4.4-2.23-7.75-2.23-3.09-.05-6.13.74-8.81,2.28-.39.21-.56.69-.38,1.11l1.46,3.1c.2.43.71.62,1.14.42.03-.02.07-.03.1-.06.76-.46,1.55-.85,2.37-1.17,1.06-.39,2.19-.59,3.32-.58.98-.09,1.97.17,2.78.72.61.56.92,1.37.86,2.19v.64c-1.34-.58-2.79-.85-4.24-.8-1.24-.02-2.47.16-3.66.52-1.04.31-2,.81-2.85,1.48-.78.62-1.42,1.39-1.88,2.28-.46.9-.69,1.9-.67,2.92-.01.93.18,1.84.56,2.69.36.81.88,1.53,1.53,2.13.68.62,1.48,1.1,2.35,1.42.93.36,1.92.54,2.92.53,1.38.01,2.73-.31,3.96-.93Zm-3.21-8.27c.68-.47,1.49-.7,2.32-.67.49,0,.97.06,1.45.16l.87.21c.37.11.61.45.61.84v.92c0,.28-.1.55-.28.78-.2.27-.45.51-.72.7-.4.25-.83.45-1.28.58-.45.14-.92.21-1.4.22-.64.02-1.27-.17-1.78-.56-.45-.34-.71-.87-.7-1.44.01-.68.36-1.3.92-1.68v-.05Z"/>
        <path class="cls-4" d="m124.03,27.63h5.86c.48,0,.86-.39.87-.87v-10.74c0-.12.02-.25.07-.36.34-.79.88-1.47,1.56-1.99.58-.5,1.3-.8,2.07-.84.61,0,1.2.25,1.62.69.52.63.77,1.45.69,2.27v10.96c0,.48.4.87.88.87h5.85c.48,0,.86-.39.87-.87v-12.97c0-.8-.07-1.6-.2-2.39-.13-.87-.42-1.71-.86-2.48-.47-.8-1.13-1.47-1.92-1.94-1.07-.58-2.28-.84-3.5-.77-1.64-.04-3.26.27-4.77.9-.63.26-1.22.61-1.75,1.03-.38.29-.93.22-1.22-.16-.12-.15-.18-.34-.18-.53,0-.48-.39-.86-.87-.87h-5.1c-.48,0-.86.39-.87.87v19.31c0,.48.39.86.87.87Z"/>
        <path class="cls-9" d="m159.29,27.61c.93-.23,1.84-.52,2.73-.86.41-.16.64-.61.53-1.03l-1.19-5.24c-.46.21-.94.38-1.44.5-.42.12-.85.18-1.28.19-.44.02-.87-.13-1.2-.42-.33-.41-.49-.93-.43-1.46v-6.08c0-.48.39-.87.87-.87h2.45c.48,0,.87-.39.87-.87v-3.98c0-.48-.39-.87-.87-.87h-2.38c-.48,0-.86-.39-.87-.87V.87c0-.49-.4-.87-.89-.87h0s-5.85,0-5.85,0c-.48,0-.87.39-.88.87v4.86c0,.48-.39.87-.87.87h-.86c-.48,0-.86.39-.87.87v3.98c0,.48.39.86.87.87h.86c.47,0,.86.37.87.85,0,0,0,.01,0,.02v8.76c-.03.98.15,1.96.53,2.88.3.73.76,1.37,1.36,1.88.61.49,1.31.84,2.07,1.03.8.21,1.62.31,2.44.31,1.16,0,2.32-.16,3.44-.44Z"/>
        <path class="cls-12" d="m183.59,24.73c.97-1,1.72-2.18,2.2-3.49.98-2.67.98-5.6,0-8.27-.49-1.3-1.24-2.48-2.2-3.48-1.03-1.04-2.25-1.86-3.61-2.4-3.2-1.2-6.74-1.2-9.94,0-1.35.55-2.58,1.36-3.6,2.4-.97.99-1.71,2.18-2.19,3.48-.99,2.67-.99,5.61,0,8.27.48,1.3,1.22,2.49,2.19,3.49,1.03,1.03,2.25,1.85,3.6,2.4,3.2,1.2,6.74,1.2,9.94,0,1.35-.55,2.58-1.36,3.61-2.4Zm-5.9-4.3c-1.32,1.48-3.59,1.61-5.07.29-.1-.09-.2-.19-.29-.29-.74-.94-1.11-2.12-1.03-3.32-.07-1.2.3-2.38,1.03-3.32,1.34-1.48,3.62-1.6,5.1-.26.09.08.18.17.26.26.74.94,1.1,2.12,1.03,3.32.07,1.2-.29,2.38-1.03,3.32h0Z"/>
        <path class="cls-17" d="m99.77,48.62c-.21-.07-.39-.19-.53-.36-.25-.46-.36-.98-.31-1.5v-4.14c0-2.98-.91-5.22-2.72-6.71-1.82-1.49-4.4-2.23-7.76-2.23-3.09-.04-6.13.75-8.81,2.29-.38.23-.52.71-.33,1.12l1.45,3.1c.21.44.74.62,1.18.4.03-.01.05-.03.08-.04.75-.46,1.54-.85,2.37-1.17,1.06-.4,2.18-.6,3.31-.59.98-.08,1.96.17,2.78.72.61.56.92,1.38.86,2.2v.7c-1.33-.57-2.78-.84-4.23-.8-1.24-.01-2.47.16-3.66.52-1.04.31-2.01.81-2.87,1.48-.78.62-1.42,1.4-1.87,2.29-.46.9-.7,1.9-.68,2.92,0,.91.21,1.8.59,2.63.36.81.89,1.54,1.54,2.14.68.62,1.47,1.1,2.34,1.42.93.35,1.92.53,2.92.52,1.36,0,2.71-.32,3.92-.94,1.27-.66,2.38-1.6,3.24-2.74l.17.77c.15.9.66,1.7,1.4,2.22.94.55,2.02.81,3.1.73.49,0,.98-.04,1.47-.1.35-.03.69-.08,1.03-.16.41-.08.71-.44.71-.86v-5.03c-.03-.38-.3-.7-.67-.8Zm-8.44-.79c-.01.29-.12.57-.31.79-.2.26-.44.5-.71.69-.4.25-.83.44-1.28.58-.45.14-.92.22-1.4.23-.64.01-1.27-.2-1.78-.6-.45-.34-.71-.87-.7-1.44,0-.69.35-1.33.92-1.72.68-.48,1.49-.71,2.32-.68.48,0,.96.07,1.44.17.3.06.59.12.87.21.37.11.62.45.61.83l.03.95Z"/>
        <path class="cls-11" d="m123.22,36.4c-.47-.79-1.13-1.46-1.92-1.93-1.04-.57-2.23-.84-3.41-.78-1.64-.04-3.27.27-4.78.9-.63.26-1.22.61-1.75,1.03-.38.29-.93.22-1.22-.16-.12-.15-.18-.34-.18-.53,0-.48-.38-.87-.86-.88,0,0,0,0-.01,0h-5.09c-.49,0-.88.39-.88.88v19.31c0,.48.39.87.87.87,0,0,0,0,.01,0h5.85c.48,0,.87-.39.87-.87v-10.74c0-.12.02-.25.07-.36.33-.78.86-1.46,1.52-1.99.58-.5,1.3-.8,2.07-.84.61,0,1.2.26,1.61.7.52.63.78,1.44.7,2.25v10.96c0,.47.37.86.85.87,0,0,.01,0,.02,0h5.85c.48,0,.87-.39.87-.87v-12.96c0-.8-.07-1.61-.2-2.4-.14-.87-.44-1.72-.88-2.48Z"/>
        <path class="cls-19" d="m149.75,48.62c-.21-.07-.39-.19-.53-.36-.26-.46-.37-.98-.32-1.5v-11.79c0-.48-.38-.87-.86-.88,0,0,0,0-.01,0h-5.85c-.48,0-.87.4-.87.88v11.71c0,.19-.06.37-.17.53-.41.65-.99,1.17-1.68,1.52-.57.26-1.18.4-1.8.4-.65.03-1.28-.26-1.7-.77-.45-.62-.67-1.38-.62-2.15v-11.24c-.03-.47-.42-.83-.89-.83h-5.85c-.49,0-.88.39-.88.88v12.91c-.14,2.03.46,4.04,1.69,5.66,1.25,1.35,3.05,2.06,4.88,1.93,1.6.03,3.19-.27,4.68-.86,1.4-.61,2.62-1.58,3.52-2.82l.16.77c.4,1.94,1.89,2.92,4.48,2.92.84-.01,1.67-.1,2.49-.26.41-.08.71-.44.7-.86v-4.99c-.02-.35-.24-.66-.57-.8Z"/>
        <path class="cls-6" d="m173.57,36.4c-.47-.79-1.13-1.46-1.92-1.93-1.05-.57-2.23-.84-3.42-.78-1.64-.04-3.26.27-4.77.9-.63.26-1.22.61-1.75,1.03-.39.28-.93.19-1.21-.2-.1-.14-.15-.3-.16-.46,0-.48-.39-.87-.87-.88h-5.1c-.48,0-.87.4-.87.88v19.28c0,.48.39.87.87.87h5.86c.48,0,.87-.39.87-.87v-10.74c0-.12.02-.25.07-.36.33-.78.85-1.46,1.52-1.99.58-.5,1.3-.8,2.07-.84.61,0,1.2.26,1.62.7.52.63.77,1.44.69,2.25v10.96c0,.48.39.87.87.87h5.83c.48,0,.87-.39.87-.87v-12.96c0-.8-.07-1.61-.2-2.4-.14-.87-.44-1.72-.88-2.48Z"/>
        <path class="cls-14" d="m188.65,40.08c.99-.03,1.95.39,2.6,1.15.24.25.6.34.93.23l5.73-1.73c.46-.14.72-.63.58-1.1-.02-.08-.06-.16-.11-.23-.86-1.26-1.97-2.31-3.27-3.1-1.95-1.12-4.18-1.68-6.42-1.59-1.69-.03-3.38.27-4.95.9-1.36.54-2.59,1.35-3.62,2.39-.97.99-1.72,2.17-2.2,3.47-1.02,2.66-1.02,5.61,0,8.27.49,1.3,1.24,2.49,2.21,3.48,1.03,1.04,2.26,1.86,3.62,2.4,1.58.63,3.26.93,4.95.9,2.25.08,4.48-.47,6.42-1.6,1.3-.79,2.42-1.84,3.27-3.1.27-.41.15-.95-.25-1.22-.07-.05-.15-.08-.23-.11l-5.73-1.73c-.33-.11-.69-.03-.93.23-.65.75-1.6,1.18-2.6,1.15-1.01.01-1.97-.42-2.64-1.18-.75-.94-1.12-2.14-1.03-3.34-.09-1.2.28-2.4,1.03-3.34.66-.76,1.62-1.19,2.63-1.19Z"/>
        <rect class="cls-8" x="201.37" y="25.93" width="7.6" height="6.39" rx=".87" ry=".87"/>
        <rect class="cls-13" x="201.37" y="34.08" width="7.6" height="21.03" rx=".87" ry=".87"/>
        <path class="cls-7" d="m233.93,40.46c-.49-1.31-1.25-2.49-2.23-3.49-1.03-1.04-2.26-1.85-3.61-2.39-3.2-1.2-6.74-1.2-9.94,0-1.35.54-2.57,1.36-3.6,2.39-.97.99-1.72,2.18-2.19,3.49-.99,2.67-.99,5.61,0,8.27.47,1.3,1.22,2.49,2.19,3.48,1.02,1.04,2.25,1.85,3.6,2.4,3.2,1.2,6.74,1.2,9.94,0,1.36-.54,2.58-1.36,3.61-2.4.97-.99,1.72-2.17,2.2-3.48.99-2.67.99-5.61,0-8.27h.03Zm-8.1,7.46c-1.32,1.48-3.59,1.61-5.07.29-.1-.09-.2-.19-.29-.29-.74-.94-1.11-2.12-1.03-3.32-.07-1.2.29-2.38,1.03-3.32,1.32-1.48,3.59-1.61,5.07-.29.1.09.2.19.29.29.74.94,1.11,2.12,1.03,3.32.07,1.2-.3,2.38-1.03,3.32Z"/>
        <rect class="cls-16" x="34.35" y="62.3" width="1.98" height="2.36" rx=".52" ry=".52"/>
        <path class="cls-3" d="m40.93,59.87c.31,0,.61.13.81.36.08.08.19.11.3.07l1.8-.55c.14-.04.22-.19.18-.33,0-.03-.02-.06-.04-.08-.27-.4-.62-.74-1.03-.98-.63-.36-1.34-.54-2.07-.51-.53-.01-1.07.09-1.56.29-.43.17-.82.43-1.14.76-.29.32-.5.69-.64,1.1-.16.42-.24.86-.24,1.3,0,.45.08.89.24,1.3.17.41.42.78.73,1.09.32.33.71.58,1.14.76.5.19,1.03.29,1.56.28.72.04,1.44-.14,2.07-.5.42-.26.77-.62,1.03-1.03.09-.12.06-.29-.06-.37-.02-.02-.05-.03-.08-.04l-1.8-.55c-.11-.04-.22,0-.3.07-.2.24-.5.37-.81.36-.32,0-.63-.13-.84-.37-.24-.29-.35-.66-.33-1.03-.02-.37.09-.74.33-1.03.19-.21.46-.34.74-.35Z"/>
        <path class="cls-2" d="m50.98,58.84c-.33-.33-.72-.6-1.16-.77-1.03-.39-2.16-.39-3.19,0-.43.17-.82.43-1.15.77-.32.33-.56.72-.71,1.15-.32.86-.32,1.8,0,2.66.17.4.42.77.73,1.08.33.33.72.6,1.15.78,1.03.39,2.16.39,3.19,0,.43-.18.83-.44,1.16-.78.31-.32.55-.69.71-1.11.3-.85.3-1.78,0-2.63-.16-.43-.41-.82-.73-1.15Zm-1.89,3.51c-.21.26-.53.4-.86.38-.33,0-.64-.13-.86-.38-.44-.64-.44-1.49,0-2.13.22-.25.53-.39.86-.38.33,0,.64.13.86.38.46.64.46,1.49,0,2.13Z"/>
        <path class="cls-5" d="m63.32,58.66c-.14-.25-.34-.47-.59-.62-.32-.18-.67-.26-1.03-.25-.49,0-.98.1-1.42.31-.4.18-.75.48-.98.86-.05-.15-.12-.3-.22-.43-.09-.15-.21-.28-.35-.37-.16-.12-.34-.21-.54-.27-.23-.07-.47-.1-.71-.09-.51-.02-1.02.08-1.49.29-.42.17-.78.46-1.03.84v-.99h-1.64c-.29,0-.52.23-.52.52,0,0,0,0,0,.01v5.68c0,.29.23.52.52.52h1.4c.29,0,.52-.23.52-.52v-3.25c.09-.27.26-.52.49-.69.17-.16.39-.26.62-.27.18,0,.36.08.48.22.15.21.22.47.2.72v3.27c0,.29.23.52.52.52,0,0,0,0,.01,0h1.43c.29,0,.52-.23.52-.52v-3.25c.09-.27.26-.51.48-.69.17-.16.39-.26.62-.27.19,0,.36.08.49.22.15.21.22.47.2.72v3.27c0,.29.23.52.52.52h1.32c.29,0,.52-.22.53-.51,0,0,0,0,0-.01v-3.91c0-.26-.03-.51-.07-.77-.02-.28-.1-.55-.23-.8Z"/>
      </g>
    </g>
  </g>
</svg>