<?xml version="1.0" encoding="UTF-8"?>
<svg id="Capa_2" data-name="Capa 2" xmlns="http://www.w3.org/2000/svg" xmlns:xlink="http://www.w3.org/1999/xlink" viewBox="0 0 82.69 100">
  <defs>
    <style>
      .cls-1 {
        fill: url(#Degradado_sin_nombre_13);
      }

      .cls-2 {
        fill: url(#Degradado_sin_nombre_13-9);
      }

      .cls-3 {
        fill: url(#Degradado_sin_nombre_13-11);
      }

      .cls-4 {
        fill: url(#Degradado_sin_nombre_13-6);
      }

      .cls-5 {
        fill: url(#Degradado_sin_nombre_13-5);
      }

      .cls-6 {
        fill: url(#Degradado_sin_nombre_13-12);
      }

      .cls-7 {
        fill: url(#Degradado_sin_nombre_13-7);
      }

      .cls-8 {
        fill: url(#Degradado_sin_nombre_13-13);
      }

      .cls-9 {
        fill: url(#Degradado_sin_nombre_13-3);
      }

      .cls-10 {
        fill: url(#Degradado_sin_nombre_13-14);
      }

      .cls-11 {
        fill: url(#Degradado_sin_nombre_13-2);
      }

      .cls-12 {
        fill: url(#Degradado_sin_nombre_13-10);
      }

      .cls-13 {
        fill: url(#Degradado_sin_nombre_13-8);
      }

      .cls-14 {
        fill: url(#Degradado_sin_nombre_13-4);
      }
    </style>
    <linearGradient id="Degradado_sin_nombre_13" data-name="Degradado sin nombre 13" x1="0" y1="50" x2="82.69" y2="50" gradientUnits="userSpaceOnUse">
      <stop offset="0" stop-color="#a42080"/>
      <stop offset=".25" stop-color="#901984"/>
      <stop offset=".76" stop-color="#5c088e"/>
      <stop offset="1" stop-color="#430094"/>
    </linearGradient>
    <linearGradient id="Degradado_sin_nombre_13-2" data-name="Degradado sin nombre 13" x1="17.01" y1="10" x2="41.82" y2="10" xlink:href="#Degradado_sin_nombre_13"/>
    <linearGradient id="Degradado_sin_nombre_13-3" data-name="Degradado sin nombre 13" x1="64.33" y1="37.17" x2="75.84" y2="37.17" xlink:href="#Degradado_sin_nombre_13"/>
    <linearGradient id="Degradado_sin_nombre_13-4" data-name="Degradado sin nombre 13" x1="64.34" y1="62.83" x2="75.84" y2="62.83" xlink:href="#Degradado_sin_nombre_13"/>
    <linearGradient id="Degradado_sin_nombre_13-5" data-name="Degradado sin nombre 13" x1="38.69" y1="37.17" x2="50.2" y2="37.17" xlink:href="#Degradado_sin_nombre_13"/>
    <linearGradient id="Degradado_sin_nombre_13-6" data-name="Degradado sin nombre 13" x1="38.69" y1="62.83" x2="50.21" y2="62.83" xlink:href="#Degradado_sin_nombre_13"/>
    <linearGradient id="Degradado_sin_nombre_13-7" data-name="Degradado sin nombre 13" x1="47.49" y1="41.47" x2="56.01" y2="41.47" xlink:href="#Degradado_sin_nombre_13"/>
    <linearGradient id="Degradado_sin_nombre_13-8" data-name="Degradado sin nombre 13" x1="58.4" y1="55.79" x2="75.75" y2="55.79" xlink:href="#Degradado_sin_nombre_13"/>
    <linearGradient id="Degradado_sin_nombre_13-9" data-name="Degradado sin nombre 13" x1="58.38" y1="35.12" x2="61.36" y2="35.12" xlink:href="#Degradado_sin_nombre_13"/>
    <linearGradient id="Degradado_sin_nombre_13-10" data-name="Degradado sin nombre 13" x1="58.35" y1="44.55" x2="61.42" y2="44.55" xlink:href="#Degradado_sin_nombre_13"/>
    <linearGradient id="Degradado_sin_nombre_13-11" data-name="Degradado sin nombre 13" x1="53" y1="58.35" x2="56" y2="58.35" xlink:href="#Degradado_sin_nombre_13"/>
    <linearGradient id="Degradado_sin_nombre_13-12" data-name="Degradado sin nombre 13" x1="55.26" y1="67.06" x2="62.56" y2="67.06" xlink:href="#Degradado_sin_nombre_13"/>
    <linearGradient id="Degradado_sin_nombre_13-13" data-name="Degradado sin nombre 13" x1="42.25" y1="49.97" x2="45.25" y2="49.97" xlink:href="#Degradado_sin_nombre_13"/>
    <linearGradient id="Degradado_sin_nombre_13-14" data-name="Degradado sin nombre 13" x1="66.43" y1="47.22" x2="73.71" y2="47.22" xlink:href="#Degradado_sin_nombre_13"/>
  </defs>
  <g id="Capa_1-2" data-name="Capa 1">
    <g>
      <path class="cls-1" d="m58.78,75.38c0,.83,0,1.44,0,2.06,0,4.11.03,8.22-.01,12.33-.06,5.8-4.42,10.19-10.21,10.21-12.73.04-25.46.03-38.19,0-5.54-.01-9.64-3.73-10.28-9.23-.07-.62-.08-1.25-.08-1.88C0,62.95.01,37.04,0,11.12,0,6.57,1.65,2.98,5.93,1.01,7.19.43,8.66.06,10.04.06,22.94-.01,35.84-.01,48.74.03c5.56.02,9.94,4.42,10.03,10.03.06,4.17.01,8.33.02,12.5,0,.61,0,1.23,0,2.06.78,0,1.39,0,2,0,6.45,0,12.9,0,19.35,0,2.2,0,2.56.35,2.56,2.6,0,15.18,0,30.37,0,45.55,0,2.25-.36,2.6-2.56,2.6-6.39,0-12.79,0-19.18,0-.62,0-1.24,0-2.17,0Zm-3.12-50.76c.04-.65.09-1.09.09-1.53,0-4.22.02-8.45,0-12.67-.03-4.41-3.01-7.37-7.45-7.38-12.61-.02-25.22-.02-37.83,0-4.41,0-7.37,2.97-7.45,7.41-.03,1.83,0,3.65,0,5.48,0,24.37.03,48.73-.03,73.1-.01,5.14,3.64,8.05,7.99,8,12.32-.14,24.65-.04,36.98-.05,4.97,0,7.8-2.89,7.8-7.9,0-3.94,0-7.87,0-11.81,0-.6-.05-1.2-.08-1.78h-5.45c0,.82,0,1.55,0,2.28-.01,3.58-1.51,5.08-5.1,5.08-10.44,0-20.88,0-31.33,0-3.71,0-5.21-1.48-5.22-5.16,0-6.39,0-12.78,0-19.17,0-12.1,0-24.19,0-36.29,0-3.74,1.41-5.13,5.18-5.13,10.67,0,21.34,0,32.01,0,2.85,0,4.41,1.58,4.46,4.45.02.99,0,1.99,0,3.07.88,0,1.44,0,2.01,0,1.08,0,2.16,0,3.44,0Zm-8.46,0c0-.96,0-1.74,0-2.53-.02-1.86-.17-2.03-2.08-2.04-10.5,0-21,0-31.5,0-1.83,0-2.03.22-2.03,2.1,0,18.49,0,36.97,0,55.46,0,2.04.18,2.21,2.29,2.21,9.87,0,19.74.02,29.61,0,3.73,0,3.87.73,3.65-3.99,0-.1-.1-.19-.26-.45-.46,0-1.02,0-1.57,0-3.65,0-7.3,0-10.96,0-2.17,0-2.5-.32-2.5-2.46-.01-5.48,0-10.96,0-16.43,0-9.76,0-19.51,0-29.27,0-2.3.3-2.59,2.53-2.6,3.2,0,6.39,0,9.59,0,1.01,0,2.03,0,3.23,0Zm-12.25,3.11v44.5h44.62V27.72h-44.62Z"/>
      <path class="cls-11" d="m29.53,8.53c3.37,0,6.73,0,10.1,0,1.63,0,2.25.41,2.18,1.48-.08,1.31-1.02,1.48-2.07,1.47-6.9,0-13.81,0-20.71,0-.97,0-1.87-.13-2-1.36-.11-1.05.49-1.57,1.89-1.58,3.54-.02,7.08,0,10.61,0Z"/>
      <g>
        <path class="cls-9" d="m70.02,42.86c-1.25,0-2.5.02-3.76,0-1.42-.03-1.88-.43-1.9-1.81-.05-2.56-.04-5.12,0-7.68.02-1.42.47-1.87,1.84-1.88,2.62-.03,5.24,0,7.85-.01,1.13,0,1.73.61,1.75,1.66.05,2.67.05,5.35,0,8.02-.02,1.15-.65,1.75-1.86,1.72-1.31-.04-2.62,0-3.93,0Zm2.75-8.29h-5.3v5.23h5.3v-5.23Z"/>
        <path class="cls-14" d="m69.96,68.53c-1.25,0-2.5-.02-3.76,0-1.19.02-1.83-.54-1.84-1.72-.02-2.67-.02-5.35,0-8.02.01-1.09.6-1.66,1.73-1.65,2.67.01,5.35.01,8.02,0,1.16,0,1.68.67,1.7,1.7.04,2.67.05,5.35,0,8.02-.02,1.05-.61,1.68-1.75,1.67-1.37-.01-2.73,0-4.1,0Zm-2.5-8.34v5.2h5.25v-5.2h-5.25Z"/>
        <path class="cls-5" d="m44.49,42.86c-1.31,0-2.62-.02-3.93,0-1.2.03-1.84-.53-1.85-1.71-.02-2.68-.03-5.35,0-8.03.01-1.08.6-1.66,1.73-1.66,2.68.01,5.35,0,8.03,0,1.14,0,1.68.67,1.69,1.72.04,2.68.04,5.35,0,8.03-.02,1.06-.62,1.66-1.75,1.65-1.31-.02-2.62,0-3.93,0Zm-2.7-3.07h5.27v-5.21h-5.27v5.21Z"/>
        <path class="cls-4" d="m44.37,68.52c-1.31,0-2.62,0-3.93,0-1.13,0-1.71-.6-1.72-1.67-.03-2.68-.03-5.35,0-8.03.01-1.19.67-1.71,1.86-1.7,2.56.03,5.12-.01,7.69.02,1.45.02,1.9.47,1.92,1.99.04,2.45.04,4.9,0,7.34-.02,1.57-.5,2.02-2.06,2.05-1.25.02-2.51,0-3.76,0Zm2.7-8.33h-5.27v5.25h5.27v-5.25Z"/>
        <path class="cls-7" d="m53,48.55c0-.83,0-1.45,0-2.06,0-4.33,0-8.66,0-12.99,0-1.37.55-2.07,1.52-2,1.18.08,1.48.9,1.48,1.91,0,5.36.02,10.71,0,16.07,0,1.54-.43,1.94-1.92,1.97-1.65.03-3.31,0-4.96,0-.92,0-1.58-.39-1.62-1.36-.04-1.07.62-1.52,1.63-1.53,1.24,0,2.47,0,3.88,0Z"/>
        <path class="cls-13" d="m61.41,54.53c0,1.37.03,2.5,0,3.63-.03.98-.28,1.87-1.52,1.85-1.22-.02-1.48-.84-1.48-1.86,0-1.6,0-3.19,0-4.79,0-1.2.61-1.8,1.79-1.8,4.62,0,9.24,0,13.86,0,.99,0,1.71.45,1.7,1.5,0,1.06-.75,1.46-1.73,1.46-3.42,0-6.85,0-10.27.01-.68,0-1.35,0-2.34,0Z"/>
        <path class="cls-2" d="m58.43,35.02c0-.74-.05-1.48.01-2.21.07-.85.59-1.48,1.43-1.3.54.12,1.34.7,1.38,1.14.15,1.68.15,3.4-.03,5.08-.04.42-.94,1.07-1.42,1.04-.48-.03-1.17-.69-1.31-1.2-.22-.79-.06-1.69-.06-2.54,0,0,0,0-.01,0Z"/>
        <path class="cls-12" d="m58.42,44.45c0-.74-.18-1.54.05-2.2.21-.58.88-1.36,1.36-1.37.5-.01,1.38.76,1.44,1.26.19,1.57.19,3.18,0,4.75-.06.5-.89,1.21-1.45,1.29-.9.14-1.4-.59-1.42-1.52-.02-.74,0-1.48,0-2.22,0,0,0,0,.01,0Z"/>
        <path class="cls-3" d="m53.01,58.24c0-.74-.03-1.48,0-2.21.05-.88.61-1.35,1.45-1.36.84-.02,1.45.46,1.49,1.32.06,1.59.07,3.18-.02,4.76-.04.84-.64,1.32-1.51,1.28-.87-.04-1.35-.56-1.41-1.41-.05-.79-.01-1.59,0-2.38Z"/>
        <path class="cls-6" d="m58.93,68.52c-.74,0-1.48.02-2.21,0-.87-.03-1.38-.5-1.45-1.36-.07-.87.38-1.5,1.23-1.54,1.64-.08,3.3-.12,4.92.05.45.05,1.19.93,1.14,1.34-.08.55-.71,1.25-1.27,1.44-.71.25-1.57.06-2.36.06,0,0,0,0,0,.01Z"/>
        <path class="cls-8" d="m42.32,49.83c0-.74-.05-1.48.01-2.21.07-.86.65-1.46,1.46-1.29.53.11,1.29.74,1.34,1.2.16,1.63.17,3.29,0,4.92-.05.46-.91,1.24-1.3,1.18-.55-.08-1.28-.71-1.45-1.26-.25-.77-.06-1.68-.06-2.54Z"/>
        <path class="cls-10" d="m70.07,48.66c-.79,0-1.64.16-2.37-.05-.53-.16-1.31-.85-1.27-1.24.06-.56.71-1.44,1.18-1.5,1.62-.19,3.3-.19,4.92,0,.47.05,1.12.95,1.17,1.51.04.38-.74,1.07-1.27,1.23-.73.21-1.57.05-2.37.05Z"/>
      </g>
    </g>
  </g>
</svg>