<?xml version="1.0" encoding="UTF-8"?>
<svg id="Capa_2" data-name="Capa 2" xmlns="http://www.w3.org/2000/svg" xmlns:xlink="http://www.w3.org/1999/xlink" viewBox="0 0 198.83 38.24">
  <defs>
    <style>
      .cls-1 {
        fill: #fff;
      }

      .cls-2 {
        fill: #590dbe;
      }

      .cls-3 {
        fill: url(#Degradado_sin_nombre_27);
      }
    </style>
    <linearGradient id="Degradado_sin_nombre_27" data-name="Degradado sin nombre 27" x1="0" y1="19.12" x2="149.43" y2="19.12" gradientUnits="userSpaceOnUse">
      <stop offset="0" stop-color="#a42080"/>
      <stop offset=".31" stop-color="#901a90"/>
      <stop offset=".96" stop-color="#5c0dba"/>
      <stop offset="1" stop-color="#590dbe"/>
    </linearGradient>
  </defs>
  <g id="Capa_1-2" data-name="Capa 1">
    <g>
      <rect class="cls-3" width="149.43" height="38.24" rx="6.06" ry="6.06"/>
      <rect class="cls-2" x="156.77" width="42.05" height="38.24" rx="6.06" ry="6.06"/>
      <g>
        <path class="cls-1" d="m168.22,29.55c.25-.75.5-1.46.74-2.18.34-1.01.69-2.02,1.02-3.03.04-.13.03-.31-.04-.43-3.41-6.1-.02-13.56,6.82-15,5.63-1.19,11.22,2.6,12.17,8.25.93,5.5-2.78,10.74-8.28,11.69-2.28.4-4.46.07-6.52-.98-.18-.09-.33-.1-.52-.04-1.69.54-3.38,1.07-5.07,1.61-.09.03-.18.05-.31.09Zm2.56-2.5c.18-.05.3-.08.42-.12.89-.28,1.77-.57,2.66-.84.13-.04.31-.02.42.05,2.05,1.23,4.25,1.58,6.58,1.04,4.41-1.02,7.32-5.49,6.44-9.89-.92-4.63-5.3-7.63-9.98-6.83-6.1,1.05-9.1,8.05-5.64,13.16.14.2.15.37.07.59-.32.92-.63,1.85-.97,2.84Z"/>
        <path class="cls-1" d="m173.82,16.51c.03-.7.29-1.3.75-1.82.38-.44.88-.51,1.4-.48.13,0,.31.18.37.32.31.68.6,1.37.87,2.06.05.12.02.3-.04.41-.16.27-.35.53-.57.77-.2.21-.23.39-.07.64.82,1.34,1.95,2.32,3.42,2.89.21.08.37.05.51-.13.24-.3.5-.59.73-.9.15-.21.33-.28.55-.18.7.32,1.41.65,2.09,1.01.1.05.18.28.17.42-.04,1.04-.76,1.83-1.78,2.04-.57.12-1.1.04-1.66-.1-2.4-.63-4.21-2.07-5.6-4.09-.46-.67-.91-1.35-1.07-2.17-.04-.23-.06-.46-.08-.69Z"/>
      </g>
      <g>
        <path class="cls-1" d="m17.18,15.96c-.07-.07-.21-.17-.4-.3-.2-.13-.43-.25-.71-.37-.28-.12-.58-.22-.91-.31-.33-.08-.66-.13-1-.13-.6,0-1.05.11-1.34.33s-.44.53-.44.93c0,.23.05.42.17.58.11.15.27.29.48.4.21.12.48.22.8.32s.69.2,1.11.3c.55.15,1.05.31,1.49.47.45.17.83.38,1.14.63.31.25.55.56.72.91.17.35.25.79.25,1.3,0,.6-.11,1.11-.34,1.54-.23.43-.53.77-.92,1.04-.38.26-.83.46-1.33.58-.5.12-1.02.18-1.57.18-.84,0-1.68-.13-2.5-.38-.82-.25-1.56-.61-2.21-1.07l.96-1.88c.09.09.27.22.51.37.25.15.54.31.88.46.34.15.71.28,1.12.39.41.11.83.16,1.26.16,1.2,0,1.8-.38,1.8-1.15,0-.24-.07-.45-.21-.62-.14-.17-.33-.32-.58-.44-.25-.13-.56-.24-.92-.35-.36-.11-.76-.22-1.2-.35-.54-.15-1-.31-1.4-.48-.39-.17-.72-.38-.99-.62-.26-.24-.46-.51-.59-.82-.13-.31-.2-.68-.2-1.11,0-.57.11-1.07.32-1.52.21-.44.5-.81.88-1.11.37-.29.81-.52,1.3-.67.5-.15,1.03-.23,1.6-.23.79,0,1.52.12,2.18.37.66.25,1.24.54,1.74.88l-.96,1.77Z"/>
        <path class="cls-1" d="m24.97,24.32c-.82,0-1.57-.16-2.24-.48-.67-.32-1.24-.75-1.72-1.28-.48-.53-.85-1.14-1.11-1.83-.26-.68-.39-1.39-.39-2.1s.14-1.46.42-2.15c.28-.68.66-1.29,1.15-1.82.49-.53,1.07-.95,1.75-1.26.67-.31,1.41-.47,2.2-.47s1.55.17,2.22.5,1.24.77,1.71,1.3c.47.54.84,1.15,1.11,1.83.26.69.4,1.38.4,2.09,0,.75-.14,1.46-.41,2.14-.27.68-.65,1.28-1.14,1.8-.48.52-1.06.94-1.74,1.25-.67.31-1.41.47-2.2.47Zm-3.26-5.69c0,.48.07.95.22,1.41.15.45.36.85.64,1.2.28.35.62.63,1.03.84.41.21.87.32,1.38.32s.99-.11,1.4-.32c.41-.22.75-.5,1.03-.86.28-.36.49-.76.63-1.21.14-.45.21-.9.21-1.37s-.08-.95-.23-1.41c-.15-.45-.37-.85-.65-1.2-.28-.35-.62-.62-1.03-.83-.41-.21-.86-.31-1.37-.31s-1,.11-1.41.32c-.41.22-.75.5-1.03.85-.27.35-.48.75-.62,1.2-.14.45-.21.9-.21,1.37Z"/>
        <path class="cls-1" d="m32.13,24.24v-11.22h2.18v9.31h5.72v1.91h-7.9Z"/>
        <path class="cls-1" d="m41.36,24.24v-11.22h2.18v11.22h-2.18Z"/>
        <path class="cls-1" d="m45.2,18.55c0-.68.12-1.36.37-2.03.25-.67.61-1.27,1.08-1.79.47-.53,1.05-.95,1.74-1.28.68-.33,1.46-.49,2.34-.49,1.03,0,1.93.23,2.68.68.75.45,1.31,1.04,1.68,1.77l-1.67,1.15c-.15-.32-.33-.58-.54-.8-.21-.22-.44-.39-.68-.51-.24-.13-.5-.22-.76-.28-.26-.06-.52-.09-.77-.09-.55,0-1.03.11-1.43.33-.41.22-.74.51-1.01.86-.27.35-.47.75-.61,1.2-.14.45-.21.89-.21,1.34,0,.5.08.97.24,1.43.16.46.38.86.67,1.21s.64.63,1.04.84c.41.21.85.32,1.34.32.25,0,.52-.03.79-.09s.54-.16.78-.3c.25-.14.48-.31.69-.53.21-.22.38-.48.51-.78l1.79,1.03c-.18.42-.43.79-.77,1.11-.33.32-.71.59-1.12.81-.42.22-.86.39-1.34.51-.47.12-.94.17-1.39.17-.8,0-1.53-.17-2.2-.51-.66-.34-1.24-.78-1.71-1.32-.48-.54-.85-1.16-1.12-1.85-.27-.69-.4-1.39-.4-2.11Z"/>
        <path class="cls-1" d="m56.72,24.24v-11.22h2.18v11.22h-2.18Z"/>
        <path class="cls-1" d="m69.63,14.93h-3.59v9.31h-2.17v-9.31h-3.59v-1.91h9.34v1.91Z"/>
        <path class="cls-1" d="m73.11,13.02h1.93l4.27,11.22h-2.24l-1.04-2.8h-3.92l-1.03,2.8h-2.24l4.28-11.22Zm2.51,6.89l-1.55-4.41-1.61,4.41h3.16Z"/>
        <path class="cls-1" d="m80.54,24.24v-11.22h4.96c.52,0,.99.11,1.43.32.44.22.81.5,1.13.85.32.35.56.75.74,1.2.18.45.27.9.27,1.35,0,.73-.18,1.39-.54,1.98-.36.6-.86,1.02-1.48,1.29l2.56,4.22h-2.45l-2.29-3.76h-2.15v3.76h-2.18Zm2.18-5.67h2.73c.2,0,.39-.05.56-.14s.32-.22.45-.39c.13-.16.23-.36.3-.58.07-.22.11-.46.11-.71s-.04-.51-.13-.73c-.08-.22-.2-.41-.34-.58-.14-.16-.31-.29-.49-.38-.18-.09-.37-.13-.56-.13h-2.64v3.64Z"/>
        <path class="cls-1" d="m94.84,24.24v-11.22h4.08c.92,0,1.72.15,2.41.44.69.3,1.27.7,1.73,1.2.46.51.81,1.1,1.04,1.78.23.68.35,1.4.35,2.17,0,.85-.13,1.63-.39,2.32-.26.69-.63,1.28-1.11,1.77-.48.49-1.07.87-1.75,1.14s-1.44.4-2.28.4h-4.08Zm7.41-5.63c0-.54-.07-1.03-.22-1.49-.15-.45-.36-.84-.65-1.17-.28-.33-.63-.58-1.05-.76-.42-.18-.89-.27-1.42-.27h-1.9v7.4h1.9c.54,0,1.01-.09,1.43-.28.42-.19.76-.45,1.04-.78s.49-.72.64-1.18c.15-.45.22-.94.22-1.47Z"/>
        <path class="cls-1" d="m113.95,22.33v1.91h-7.79v-11.22h7.65v1.91h-5.47v2.7h4.73v1.77h-4.73v2.92h5.61Z"/>
        <path class="cls-1" d="m124.81,24.24v-7.43l-2.89,5.53h-1.19l-2.89-5.53v7.43h-2.18v-11.22h2.34l3.32,6.39,3.35-6.39h2.32v11.22h-2.18Z"/>
        <path class="cls-1" d="m134.12,24.32c-.82,0-1.57-.16-2.24-.48-.67-.32-1.24-.75-1.72-1.28-.48-.53-.85-1.14-1.11-1.83-.26-.68-.39-1.39-.39-2.1s.14-1.46.42-2.15c.28-.68.66-1.29,1.15-1.82.49-.53,1.07-.95,1.75-1.26.67-.31,1.41-.47,2.2-.47s1.55.17,2.22.5,1.24.77,1.71,1.3c.47.54.84,1.15,1.11,1.83.26.69.4,1.38.4,2.09,0,.75-.14,1.46-.41,2.14-.27.68-.65,1.28-1.14,1.8-.48.52-1.06.94-1.74,1.25-.67.31-1.41.47-2.2.47Zm-3.26-5.69c0,.48.07.95.22,1.41.15.45.36.85.64,1.2.28.35.62.63,1.03.84.41.21.87.32,1.38.32s.99-.11,1.4-.32c.41-.22.75-.5,1.03-.86.28-.36.49-.76.63-1.21.14-.45.21-.9.21-1.37s-.08-.95-.23-1.41c-.15-.45-.37-.85-.65-1.2-.28-.35-.62-.62-1.03-.83-.41-.21-.86-.31-1.37-.31s-1,.11-1.41.32c-.41.22-.75.5-1.03.85-.27.35-.48.75-.62,1.2-.14.45-.21.9-.21,1.37Z"/>
      </g>
    </g>
  </g>
</svg>