<?xml version="1.0" encoding="UTF-8"?>
<svg id="Capa_2" data-name="Capa 2" xmlns="http://www.w3.org/2000/svg" xmlns:xlink="http://www.w3.org/1999/xlink" viewBox="0 0 298.54 90.95">
  <defs>
    <style>
      .cls-1 {
        fill: #fff;
      }

      .cls-2 {
        fill: #590dbe;
      }

      .cls-3 {
        fill: url(#Degradado_sin_nombre_27);
      }
    </style>
    <linearGradient id="Degradado_sin_nombre_27" data-name="Degradado sin nombre 27" x1="0" y1="45.48" x2="230.4" y2="45.48" gradientUnits="userSpaceOnUse">
      <stop offset="0" stop-color="#a42080"/>
      <stop offset=".31" stop-color="#901a90"/>
      <stop offset=".96" stop-color="#5c0dba"/>
      <stop offset="1" stop-color="#590dbe"/>
    </linearGradient>
  </defs>
  <g id="Capa_1-2" data-name="Capa 1">
    <g>
      <rect class="cls-3" y="17.4" width="230.4" height="56.15" rx="8.66" ry="8.66"/>
      <path class="cls-2" d="m297.95,34.97c-1.87-11.12-8.36-21.18-17.79-27.61-9.48-6.45-21.29-8.81-32.41-6.47-13.39,2.82-24.26,11.48-29.84,23.75-4.98,10.95-5.01,23.18-.22,34.18-.37,1.1-.74,2.19-1.11,3.29l-9.55,28.85,20.42-5.94,2.93-.91c3.39-1.07,6.78-2.14,10.18-3.23,7.37,2.98,15.15,3.79,23.19,2.4,22.7-3.93,38.04-25.6,34.22-48.3Z"/>
      <g>
        <path class="cls-1" d="m224.11,74.43c.77-2.29,1.51-4.45,2.24-6.61,1.04-3.07,2.09-6.13,3.09-9.21.12-.38.08-.95-.12-1.3-10.35-18.53-.05-41.2,20.73-45.58,17.1-3.61,34.09,7.91,36.98,25.08,2.82,16.72-8.46,32.64-25.18,35.53-6.94,1.2-13.55.22-19.81-2.98-.54-.28-1.01-.29-1.58-.11-5.13,1.65-10.26,3.27-15.4,4.89-.27.09-.55.16-.95.28Zm7.77-7.6c.56-.16.92-.25,1.28-.36,2.69-.86,5.38-1.74,8.08-2.55.38-.12.94-.05,1.28.15,6.25,3.72,12.91,4.8,19.99,3.16,13.42-3.1,22.25-16.68,19.58-30.07-2.8-14.08-16.11-23.19-30.33-20.75-18.53,3.18-27.67,24.47-17.15,40.01.41.61.45,1.11.22,1.78-.99,2.8-1.92,5.62-2.95,8.64Z"/>
        <path class="cls-1" d="m241.13,34.82c.1-2.13.89-3.94,2.28-5.54,1.16-1.33,2.68-1.54,4.26-1.44.4.03.94.54,1.13.96.94,2.06,1.82,4.15,2.65,6.26.14.35.07.92-.13,1.25-.5.82-1.08,1.62-1.73,2.33-.59.65-.69,1.19-.22,1.95,2.51,4.08,5.94,7.04,10.41,8.79.65.25,1.14.15,1.57-.38.74-.91,1.53-1.8,2.23-2.74.46-.62,1-.84,1.67-.53,2.14.99,4.28,1.98,6.36,3.06.32.16.54.84.52,1.26-.11,3.15-2.31,5.55-5.41,6.2-1.74.37-3.35.14-5.03-.31-7.31-1.93-12.8-6.29-17.03-12.43-1.41-2.05-2.78-4.1-3.27-6.6-.13-.69-.17-1.4-.26-2.1Z"/>
      </g>
      <g>
        <path class="cls-1" d="m24.68,40.83c-.11-.11-.31-.26-.59-.44-.29-.19-.63-.37-1.04-.55-.41-.18-.85-.33-1.33-.45-.48-.12-.97-.19-1.46-.19-.88,0-1.54.16-1.97.49s-.65.78-.65,1.37c0,.34.08.62.24.85.16.22.4.42.71.59.31.17.7.32,1.17.46.47.14,1.02.29,1.64.44.8.22,1.54.45,2.19.7.66.25,1.21.56,1.67.93.46.37.81.82,1.06,1.33.25.52.37,1.16.37,1.91,0,.88-.17,1.64-.5,2.26s-.78,1.13-1.35,1.52c-.56.39-1.21.67-1.95.85-.73.18-1.5.27-2.31.27-1.24,0-2.46-.19-3.67-.56-1.21-.37-2.29-.9-3.25-1.58l1.42-2.76c.14.14.39.32.75.55.36.22.79.45,1.29.67.5.22,1.04.41,1.65.57.6.15,1.22.23,1.86.23,1.76,0,2.65-.56,2.65-1.69,0-.36-.1-.66-.3-.91-.2-.25-.49-.46-.86-.65-.37-.19-.82-.36-1.35-.51-.53-.15-1.11-.32-1.76-.51-.79-.22-1.47-.45-2.05-.71s-1.06-.56-1.45-.91c-.39-.35-.68-.75-.87-1.21-.19-.46-.29-1-.29-1.64,0-.84.15-1.58.46-2.23.31-.65.74-1.19,1.29-1.62.55-.43,1.19-.76,1.91-.99.73-.22,1.51-.34,2.34-.34,1.16,0,2.23.18,3.2.55.97.36,1.82.79,2.55,1.29l-1.42,2.6Z"/>
        <path class="cls-1" d="m36.12,53.1c-1.21,0-2.3-.24-3.28-.71-.98-.47-1.83-1.1-2.53-1.88-.7-.78-1.25-1.67-1.64-2.68-.39-1.01-.58-2.03-.58-3.09s.21-2.15.61-3.16c.41-1.01.97-1.89,1.69-2.67.72-.77,1.57-1.39,2.56-1.84.99-.46,2.06-.68,3.23-.68s2.28.24,3.26.73c.98.49,1.82,1.13,2.52,1.91s1.24,1.69,1.62,2.69c.39,1.01.58,2.03.58,3.06,0,1.1-.2,2.15-.6,3.14-.4,1-.96,1.88-1.67,2.65s-1.56,1.38-2.55,1.83c-.99.46-2.06.68-3.23.68Zm-4.78-8.35c0,.71.11,1.4.32,2.07.22.67.53,1.25.94,1.76.41.51.91.92,1.51,1.23.6.31,1.27.46,2.03.46s1.46-.16,2.05-.48c.6-.32,1.1-.74,1.51-1.26.41-.53.72-1.12.93-1.78.21-.66.31-1.33.31-2.01s-.11-1.4-.34-2.07c-.22-.66-.54-1.25-.95-1.76-.41-.51-.91-.92-1.51-1.22-.6-.3-1.26-.45-2.01-.45s-1.46.16-2.06.48c-.6.32-1.11.73-1.51,1.25-.4.52-.71,1.11-.92,1.76-.21.66-.31,1.33-.31,2.01Z"/>
        <path class="cls-1" d="m46.63,52.99v-16.47h3.2v13.67h8.4v2.81h-11.6Z"/>
        <path class="cls-1" d="m60.18,52.99v-16.47h3.2v16.47h-3.2Z"/>
        <path class="cls-1" d="m65.82,44.63c0-1.01.18-2,.55-2.98.36-.98.89-1.86,1.59-2.63.7-.77,1.55-1.4,2.55-1.88,1.01-.48,2.15-.72,3.43-.72,1.52,0,2.83.33,3.93,1,1.11.67,1.93,1.53,2.47,2.6l-2.46,1.69c-.22-.46-.48-.85-.79-1.17-.31-.32-.64-.57-1-.75s-.73-.32-1.11-.41c-.39-.08-.77-.13-1.14-.13-.8,0-1.5.16-2.1.49-.6.32-1.09.75-1.48,1.26-.39.52-.69,1.11-.89,1.76-.2.66-.3,1.31-.3,1.96,0,.73.12,1.43.35,2.1.23.67.56,1.26.99,1.78.43.51.94.92,1.53,1.23.6.31,1.25.46,1.96.46.37,0,.76-.05,1.16-.14.4-.09.78-.24,1.15-.44.36-.2.7-.46,1.01-.78.31-.32.56-.7.74-1.15l2.62,1.51c-.26.62-.64,1.16-1.13,1.64-.49.47-1.04.87-1.65,1.2-.61.32-1.26.57-1.96.74-.7.17-1.38.26-2.04.26-1.18,0-2.25-.25-3.23-.74-.97-.49-1.81-1.14-2.52-1.94-.7-.8-1.25-1.7-1.65-2.71-.39-1.01-.59-2.05-.59-3.1Z"/>
        <path class="cls-1" d="m82.73,52.99v-16.47h3.2v16.47h-3.2Z"/>
        <path class="cls-1" d="m101.69,39.32h-5.27v13.67h-3.18v-13.67h-5.27v-2.81h13.71v2.81Z"/>
        <path class="cls-1" d="m106.79,36.51h2.83l6.26,16.47h-3.29l-1.53-4.11h-5.75l-1.51,4.11h-3.29l6.29-16.47Zm3.69,10.12l-2.27-6.47-2.37,6.47h4.64Z"/>
        <path class="cls-1" d="m117.7,52.99v-16.47h7.29c.76,0,1.46.16,2.1.48.64.32,1.19.73,1.66,1.25.46.52.83,1.11,1.09,1.76.26.66.39,1.32.39,1.98,0,1.07-.27,2.04-.8,2.91-.53.87-1.26,1.5-2.17,1.89l3.76,6.2h-3.6l-3.36-5.52h-3.16v5.52h-3.2Zm3.2-8.33h4.01c.29,0,.57-.07.82-.21.26-.14.48-.33.66-.57.19-.24.33-.52.44-.85.11-.32.16-.67.16-1.04s-.06-.74-.19-1.07c-.12-.32-.29-.61-.5-.85-.21-.24-.45-.43-.72-.56-.27-.13-.55-.2-.82-.2h-3.88v5.34Z"/>
        <path class="cls-1" d="m138.7,52.99v-16.47h5.99c1.35,0,2.53.22,3.54.65,1.01.43,1.86,1.02,2.54,1.76.68.74,1.19,1.61,1.53,2.61.34,1,.51,2.06.51,3.19,0,1.25-.19,2.39-.57,3.4-.38,1.01-.92,1.88-1.64,2.6-.71.72-1.57,1.28-2.56,1.67-1,.39-2.12.59-3.35.59h-5.99Zm10.88-8.26c0-.79-.11-1.52-.32-2.18-.22-.66-.53-1.24-.95-1.72-.42-.48-.93-.85-1.54-1.11-.61-.26-1.3-.39-2.08-.39h-2.78v10.86h2.78c.79,0,1.49-.14,2.1-.42.61-.28,1.12-.66,1.53-1.15.41-.49.72-1.06.94-1.73.22-.66.32-1.38.32-2.16Z"/>
        <path class="cls-1" d="m166.75,50.18v2.81h-11.44v-16.47h11.23v2.81h-8.03v3.97h6.94v2.6h-6.94v4.29h8.24Z"/>
        <path class="cls-1" d="m182.69,52.99v-10.91l-4.25,8.12h-1.74l-4.25-8.12v10.91h-3.2v-16.47h3.43l4.87,9.37,4.92-9.37h3.41v16.47h-3.2Z"/>
        <path class="cls-1" d="m196.36,53.1c-1.21,0-2.3-.24-3.28-.71-.98-.47-1.83-1.1-2.53-1.88-.7-.78-1.25-1.67-1.64-2.68-.39-1.01-.58-2.03-.58-3.09s.2-2.15.61-3.16c.41-1.01.97-1.89,1.69-2.67.72-.77,1.57-1.39,2.56-1.84.99-.46,2.07-.68,3.23-.68s2.28.24,3.26.73c.98.49,1.82,1.13,2.52,1.91.7.79,1.24,1.69,1.62,2.69.39,1.01.58,2.03.58,3.06,0,1.1-.2,2.15-.6,3.14-.4,1-.96,1.88-1.67,2.65s-1.56,1.38-2.55,1.83c-.99.46-2.07.68-3.23.68Zm-4.78-8.35c0,.71.11,1.4.33,2.07.22.67.53,1.25.94,1.76s.91.92,1.51,1.23c.6.31,1.27.46,2.03.46s1.46-.16,2.05-.48c.6-.32,1.1-.74,1.51-1.26.41-.53.72-1.12.93-1.78.21-.66.31-1.33.31-2.01s-.11-1.4-.34-2.07c-.22-.66-.54-1.25-.95-1.76s-.91-.92-1.51-1.22c-.6-.3-1.26-.45-2.01-.45s-1.46.16-2.07.48c-.6.32-1.11.73-1.51,1.25-.4.52-.71,1.11-.92,1.76-.21.66-.31,1.33-.31,2.01Z"/>
      </g>
    </g>
  </g>
</svg>