<?xml version="1.0" encoding="UTF-8"?>
<svg id="Capa_2" data-name="Capa 2" xmlns="http://www.w3.org/2000/svg" xmlns:xlink="http://www.w3.org/1999/xlink" viewBox="0 0 297.25 100.09">
  <defs>
    <style>
      .cls-1 {
        fill: #fff;
      }

      .cls-2 {
        fill: url(#Nueva_muestra_de_degradado_2-3);
      }

      .cls-3 {
        fill: url(#Nueva_muestra_de_degradado_2);
      }

      .cls-4 {
        fill: url(#Nueva_muestra_de_degradado_2-2);
      }
    </style>
    <linearGradient id="Nueva_muestra_de_degradado_2" data-name="Nueva muestra de degradado 2" x1="16.28" y1="49.28" x2="190.95" y2="49.28" gradientUnits="userSpaceOnUse">
      <stop offset="0" stop-color="#430094"/>
      <stop offset=".24" stop-color="#5c088e"/>
      <stop offset=".75" stop-color="#901984"/>
      <stop offset="1" stop-color="#a42080"/>
    </linearGradient>
    <linearGradient id="Nueva_muestra_de_degradado_2-2" data-name="Nueva muestra de degradado 2" x1="215.34" y1="47.05" x2="285.05" y2="47.05" xlink:href="#Nueva_muestra_de_degradado_2"/>
    <linearGradient id="Nueva_muestra_de_degradado_2-3" data-name="Nueva muestra de degradado 2" x1="234.07" y1="46.35" x2="268.18" y2="46.35" xlink:href="#Nueva_muestra_de_degradado_2"/>
  </defs>
  <g id="Capa_1-2" data-name="Capa 1">
    <g>
      <path class="cls-1" d="m5.67,13.85h212.67v72.39H5.67c-3.13,0-5.67-2.54-5.67-5.67V19.52c0-3.13,2.54-5.67,5.67-5.67Z"/>
      <path class="cls-3" d="m47.91,38.06l-5.93,22.44h-5.6l-3.72-14.39c-.2-.75-.32-1.59-.36-2.52h-.06c-.09,1.02-.23,1.86-.41,2.52l-3.82,14.39h-5.84l-5.9-22.44h5.52l3.16,14.94c.14.64.23,1.49.3,2.57h.09c.04-.8.19-1.68.45-2.63l4.07-14.88h5.41l3.68,15.07c.14.55.25,1.36.36,2.41h.06c.04-.82.15-1.66.33-2.5l3.1-14.97h5.1Zm22.26,22.44h-5.07v-9.14h-9.29v9.14h-5.05v-22.44h5.05v8.95h9.29v-8.95h5.07v22.44Zm24.86,0h-5.51l-1.6-4.99h-7.98l-1.58,4.99h-5.48l8.17-22.44h5.99l7.98,22.44Zm-8.26-8.87l-2.41-7.54c-.18-.56-.3-1.24-.38-2.02h-.12c-.05.66-.18,1.31-.39,1.96l-2.44,7.6h5.74Zm24.58-9.45h-6.4v18.32h-5.07v-18.32h-6.37v-4.11h17.84v4.11Zm1.99,17.46v-5.01c.91.76,1.89,1.33,2.96,1.71,1.06.38,2.14.57,3.22.57.64,0,1.19-.06,1.67-.17.47-.11.87-.27,1.19-.48.32-.2.56-.44.71-.72s.23-.58.23-.9c0-.44-.12-.83-.38-1.17-.25-.34-.59-.66-1.02-.96-.43-.29-.95-.57-1.54-.84-.59-.27-1.24-.55-1.92-.83-1.75-.73-3.06-1.62-3.92-2.68-.86-1.05-1.29-2.33-1.29-3.82,0-1.17.23-2.17.7-3.01.47-.84,1.11-1.53,1.92-2.07.81-.54,1.75-.94,2.81-1.2,1.06-.26,2.19-.38,3.38-.38s2.2.07,3.11.21c.9.14,1.73.36,2.5.65v4.68c-.38-.26-.79-.49-1.23-.69-.44-.2-.9-.36-1.37-.49-.47-.13-.94-.23-1.4-.29s-.91-.09-1.32-.09c-.57,0-1.09.05-1.56.16s-.87.26-1.19.46-.57.44-.75.71c-.18.28-.27.59-.27.93,0,.38.1.71.3,1.01.2.3.48.58.85.84.36.27.81.53,1.33.78.52.26,1.11.52,1.77.79.9.38,1.7.77,2.42,1.2.71.42,1.33.9,1.84,1.43.51.53.9,1.14,1.17,1.82.27.68.41,1.48.41,2.39,0,1.25-.24,2.3-.71,3.15-.47.85-1.12,1.54-1.93,2.07-.81.53-1.76.9-2.84,1.13-1.08.23-2.22.34-3.42.34s-2.4-.1-3.51-.31c-1.11-.21-2.07-.52-2.89-.94Zm38.72.86h-5.51l-1.6-4.99h-7.98l-1.58,4.99h-5.48l8.17-22.44h5.99l7.98,22.44Zm-8.26-8.87l-2.41-7.54c-.18-.56-.3-1.24-.38-2.02h-.12c-.05.66-.18,1.31-.39,1.96l-2.44,7.6h5.74Zm16.11,1.14v7.73h-5.05v-22.44h7.92c5.65,0,8.48,2.38,8.48,7.15,0,2.25-.81,4.08-2.43,5.47s-3.79,2.09-6.5,2.09h-2.41Zm0-10.83v6.99h1.99c2.69,0,4.04-1.18,4.04-3.54s-1.34-3.46-4.04-3.46h-1.99Zm19.68,10.83v7.73h-5.05v-22.44h7.92c5.65,0,8.48,2.38,8.48,7.15,0,2.25-.81,4.08-2.43,5.47s-3.79,2.09-6.5,2.09h-2.41Zm0-10.83v6.99h1.99c2.69,0,4.04-1.18,4.04-3.54s-1.34-3.46-4.04-3.46h-1.99Z"/>
      <path class="cls-1" d="m296.6,38.48c-2.06-12.24-9.2-23.31-19.58-30.39-10.43-7.1-23.43-9.7-35.66-7.12-14.73,3.11-26.7,12.63-32.84,26.13-5.48,12.05-5.52,25.51-.24,37.61-.41,1.21-.82,2.41-1.23,3.62l-10.51,31.75,22.47-6.54,3.23-1c3.73-1.18,7.46-2.36,11.2-3.55,8.11,3.28,16.67,4.17,25.52,2.64,24.98-4.32,41.87-28.17,37.65-53.15Z"/>
      <g>
        <path class="cls-4" d="m215.34,81.91c.85-2.52,1.66-4.9,2.46-7.28,1.14-3.37,2.3-6.74,3.4-10.13.14-.42.09-1.04-.13-1.43-11.39-20.39-.06-45.34,22.81-50.16,18.82-3.97,37.51,8.71,40.69,27.6,3.1,18.4-9.31,35.92-27.7,39.11-7.63,1.32-14.91.24-21.81-3.28-.6-.31-1.11-.32-1.74-.12-5.64,1.81-11.29,3.59-16.94,5.38-.3.09-.6.18-1.04.31Zm8.55-8.37c.62-.17,1.02-.28,1.41-.4,2.96-.94,5.92-1.91,8.89-2.81.42-.13,1.03-.06,1.41.17,6.87,4.1,14.2,5.28,21.99,3.48,14.76-3.41,24.48-18.35,21.55-33.09-3.09-15.5-17.73-25.52-33.38-22.84-20.39,3.5-30.45,26.93-18.87,44.03.46.67.5,1.22.24,1.96-1.08,3.08-2.12,6.18-3.25,9.51Z"/>
        <path class="cls-2" d="m234.07,38.31c.11-2.35.98-4.34,2.51-6.1,1.27-1.46,2.94-1.7,4.68-1.59.44.03,1.03.6,1.24,1.06,1.04,2.27,2,4.57,2.92,6.89.15.39.08,1.02-.14,1.38-.55.91-1.19,1.78-1.9,2.56-.65.71-.76,1.31-.24,2.15,2.76,4.49,6.54,7.74,11.45,9.68.71.28,1.25.16,1.72-.42.82-1.01,1.68-1.98,2.45-3.02.51-.69,1.1-.93,1.84-.59,2.35,1.09,4.71,2.17,7,3.37.35.18.59.92.57,1.39-.12,3.47-2.54,6.1-5.95,6.82-1.91.4-3.69.15-5.54-.34-8.04-2.12-14.09-6.92-18.74-13.68-1.55-2.26-3.06-4.52-3.59-7.26-.15-.76-.19-1.54-.28-2.31Z"/>
      </g>
    </g>
  </g>
</svg>