<?xml version="1.0" encoding="UTF-8"?>
<svg id="Capa_2" data-name="Capa 2" xmlns="http://www.w3.org/2000/svg" xmlns:xlink="http://www.w3.org/1999/xlink" viewBox="0 0 82.69 100">
  <defs>
    <style>
      .cls-1 {
        fill: url(#Degradado_sin_nombre_13);
      }

      .cls-2 {
        fill: url(#Degradado_sin_nombre_13-6);
      }

      .cls-3 {
        fill: url(#Degradado_sin_nombre_13-5);
      }

      .cls-4 {
        fill: url(#Degradado_sin_nombre_13-3);
      }

      .cls-5 {
        fill: url(#Degradado_sin_nombre_13-2);
      }

      .cls-6 {
        fill: url(#Degradado_sin_nombre_13-4);
      }
    </style>
    <linearGradient id="Degradado_sin_nombre_13" data-name="Degradado sin nombre 13" x1="-6.24" y1="87.8" x2="69.35" y2="12.2" gradientUnits="userSpaceOnUse">
      <stop offset="0" stop-color="#a42080"/>
      <stop offset=".25" stop-color="#901984"/>
      <stop offset=".76" stop-color="#5c088e"/>
      <stop offset="1" stop-color="#430094"/>
    </linearGradient>
    <linearGradient id="Degradado_sin_nombre_13-2" data-name="Degradado sin nombre 13" x1="22.88" y1="16.51" x2="35.95" y2="3.44" xlink:href="#Degradado_sin_nombre_13"/>
    <linearGradient id="Degradado_sin_nombre_13-3" data-name="Degradado sin nombre 13" x1="47.79" y1="75.97" x2="65.52" y2="58.23" xlink:href="#Degradado_sin_nombre_13"/>
    <linearGradient id="Degradado_sin_nombre_13-4" data-name="Degradado sin nombre 13" x1="47.79" y1="69.75" x2="65.52" y2="52.02" xlink:href="#Degradado_sin_nombre_13"/>
    <linearGradient id="Degradado_sin_nombre_13-5" data-name="Degradado sin nombre 13" x1="50.57" y1="58.13" x2="62.96" y2="45.73" xlink:href="#Degradado_sin_nombre_13"/>
    <linearGradient id="Degradado_sin_nombre_13-6" data-name="Degradado sin nombre 13" x1="52.31" y1="41.68" x2="61.19" y2="32.81" xlink:href="#Degradado_sin_nombre_13"/>
  </defs>
  <g id="Capa_1-2" data-name="Capa 1">
    <g>
      <path class="cls-1" d="m80.13,24.62c-6.45,0-12.9,0-19.35,0h-2c0-.83,0-1.44,0-2.06,0-4.17.04-8.33-.02-12.5C58.68,4.45,54.3.04,48.74.03,35.84-.01,22.94-.01,10.04.06c-1.38,0-2.85.38-4.11.95C1.65,2.98,0,6.57,0,11.12c.01,25.91,0,51.83,0,77.74,0,.63.01,1.26.08,1.88.65,5.5,4.74,9.22,10.28,9.23,12.73.03,25.46.03,38.19,0,5.79-.02,10.15-4.41,10.21-10.21.04-4.11,0-8.22.01-12.33,0-.61,0-1.23,0-2.06h2.17c6.39,0,12.79,0,19.18,0,2.2,0,2.56-.36,2.56-2.6,0-15.18,0-30.37,0-45.55,0-2.25-.36-2.6-2.56-2.6Zm-32.18,72.35c-12.33.01-24.65-.08-36.98.05-4.35.05-8-2.86-7.99-8,.06-24.37.03-48.73.03-73.1,0-1.83-.03-3.65,0-5.48.08-4.44,3.04-7.41,7.45-7.41,12.61-.02,25.22-.02,37.83,0,4.44,0,7.42,2.97,7.45,7.38.02,4.22,0,8.44,0,12.67,0,.44-.05.89-.09,1.53h-5.44c0-1.08.01-2.08,0-3.07-.04-2.87-1.6-4.45-4.46-4.45-10.67-.01-21.34,0-32.01,0-3.77,0-5.17,1.39-5.18,5.13,0,12.1,0,24.19,0,36.29,0,6.39,0,12.78,0,19.17,0,3.68,1.51,5.16,5.22,5.16,10.44,0,20.88,0,31.33,0,3.59,0,5.09-1.51,5.1-5.08,0-.73,0-1.46,0-2.28h5.45c.03.58.08,1.18.08,1.78,0,3.94,0,7.87,0,11.81,0,5.01-2.83,7.89-7.8,7.9Zm-16.1-24.05c0,2.14.34,2.45,2.5,2.46,3.65,0,7.3,0,10.96,0h1.57c.15.26.25.35.26.44.22,4.72.07,3.98-3.65,3.99-9.87.02-19.74,0-29.61,0-2.11,0-2.29-.17-2.29-2.21,0-18.49,0-36.97,0-55.46,0-1.88.21-2.1,2.03-2.1,10.5,0,21,0,31.5,0,1.91,0,2.06.17,2.08,2.04,0,.78,0,1.57,0,2.53-1.2,0-2.21,0-3.23,0-3.2,0-6.39,0-9.59,0-2.24,0-2.53.3-2.53,2.6,0,9.76,0,19.51,0,29.27,0,5.48,0,10.96,0,16.43Zm47.71-.7h-44.62V27.72h44.62v44.5Z"/>
      <path class="cls-5" d="m19.03,11.48c6.9,0,13.81,0,20.71,0,1.05,0,1.99-.16,2.07-1.47.07-1.06-.56-1.47-2.18-1.48-3.37,0-6.73,0-10.1,0-3.54,0-7.08-.01-10.61,0-1.4,0-2,.53-1.89,1.58.13,1.23,1.04,1.36,2,1.36Z"/>
      <path class="cls-4" d="m40.99,68.51c.74.02,28.25,0,28.99,0h0c.79-.01,1.52.04,2.35,0,.65-.03,1.44-.04,1.44-1.48,0-.95-.84-1.33-1.3-1.38-1.63-.17-30.06-.13-31.7-.05-.85.04-1.3.67-1.23,1.54.07.86.58,1.34,1.45,1.36Z"/>
      <path class="cls-6" d="m40.99,62.3c.74.02,28.25,0,28.99,0h0c.79-.01,1.52.04,2.35,0,.65-.03,1.44-.04,1.44-1.48,0-.95-.84-1.33-1.3-1.38-1.63-.17-30.06-.13-31.7-.05-.85.04-1.3.67-1.23,1.54.07.86.58,1.34,1.45,1.36Z"/>
      <path class="cls-3" d="m66.47,54.67c0-.49.02-.97,0-1.44-.17-4.11-2.09-7.07-5.8-8.85-.34-.16-.64-.17-1-.02-1.93.8-3.87.8-5.8,0-.38-.16-.68-.14-1.04.02-3.26,1.53-5.16,4.08-5.69,7.62-.13.87-.02,1.77-.02,2.67h19.36Z"/>
      <path class="cls-2" d="m56.73,43.53c3.47,0,6.3-2.83,6.29-6.3,0-3.45-2.83-6.27-6.28-6.26-3.45,0-6.26,2.82-6.27,6.28,0,3.45,2.81,6.28,6.26,6.29Z"/>
    </g>
  </g>
</svg>